<?xml version="1.0" encoding="iso-8859-1"?>
<!-- Generator: Adobe Illustrator 17.1.0, SVG Export Plug-In . SVG Version: 6.00 Build 0)  -->
<!DOCTYPE svg PUBLIC "-//W3C//DTD SVG 1.1//EN" "http://www.w3.org/Graphics/SVG/1.1/DTD/svg11.dtd">
<svg xmlns="http://www.w3.org/2000/svg" xmlns:xlink="http://www.w3.org/1999/xlink" version="1.1" id="Capa_1" x="0px" y="0px" viewBox="0 0 158.345 158.345" style="enable-background:new 0 0 158.345 158.345;" xml:space="preserve" width="512px" height="512px">
<path d="M121.986,158.345H8.203c-1.381,0-2.5-1.119-2.5-2.5V2.5c0-1.381,1.119-2.5,2.5-2.5h113.783  c1.381,0,2.5,1.119,2.5,2.5v153.345C124.486,157.226,123.367,158.345,121.986,158.345z M10.703,153.345h108.783V5H10.703V153.345z   M150.122,145.641h-11.235c-1.381,0-2.5-1.119-2.5-2.5V35.245c-0.037-0.296-0.021-0.599,0.049-0.896l5.637-23.502  c0.27-1.124,1.275-1.917,2.431-1.917s2.161,0.793,2.431,1.917l5.638,23.502c0.071,0.298,0.086,0.603,0.049,0.898v107.893  C152.622,144.521,151.502,145.641,150.122,145.641z M141.386,140.641h6.235V37.433h-6.235V140.641z M142.037,32.433h4.934  l-2.467-10.284L142.037,32.433z M104.684,126.229H25.505c-1.381,0-2.5-1.119-2.5-2.5s1.119-2.5,2.5-2.5h79.179  c1.381,0,2.5,1.119,2.5,2.5S106.065,126.229,104.684,126.229z M104.684,108.047H25.505c-1.381,0-2.5-1.119-2.5-2.5  s1.119-2.5,2.5-2.5h79.179c1.381,0,2.5,1.119,2.5,2.5S106.065,108.047,104.684,108.047z M104.684,61.127H25.505  c-1.381,0-2.5-1.119-2.5-2.5s1.119-2.5,2.5-2.5h79.179c1.381,0,2.5,1.119,2.5,2.5S106.065,61.127,104.684,61.127z M104.684,42.944  H25.505c-1.381,0-2.5-1.119-2.5-2.5s1.119-2.5,2.5-2.5h79.179c1.381,0,2.5,1.119,2.5,2.5S106.065,42.944,104.684,42.944z   M104.684,24.763H25.505c-1.381,0-2.5-1.119-2.5-2.5s1.119-2.5,2.5-2.5h79.179c1.381,0,2.5,1.119,2.5,2.5  S106.065,24.763,104.684,24.763z" fill="#FFFFFF"/>
<g>
</g>
<g>
</g>
<g>
</g>
<g>
</g>
<g>
</g>
<g>
</g>
<g>
</g>
<g>
</g>
<g>
</g>
<g>
</g>
<g>
</g>
<g>
</g>
<g>
</g>
<g>
</g>
<g>
</g>
</svg>
